<svg xmlns="http://www.w3.org/2000/svg" viewBox="0 0 880 350" font-family="'Red Hat Text', system-ui, sans-serif" role="img">
<defs><marker id="a" viewBox="0 0 10 10" refX="8.5" refY="5" markerWidth="9" markerHeight="9" orient="auto-start-reverse"><path d="M0,0 L10,5 L0,10 z" fill="#555"/></marker><marker id="am" viewBox="0 0 10 10" refX="8.5" refY="5" markerWidth="9" markerHeight="9" orient="auto-start-reverse"><path d="M0,0 L10,5 L0,10 z" fill="#b8650a"/></marker></defs>
<rect x="20" y="58" width="840" height="92" rx="12" fill="#fafafa" stroke="#ddd"/>
<text x="32" y="78" font-size="12" font-weight="700" fill="#888">Bounded label set</text>
<rect x="20" y="172" width="840" height="92" rx="12" fill="#fff8ef" stroke="#ddd"/>
<text x="32" y="192" font-size="12" font-weight="700" fill="#888">One unbounded label added</text>
<rect x="45" y="82" width="330" height="56" rx="9" fill="#ffffff" stroke="#111111" stroke-width="2"/>
<text x="210.0" y="108.0" font-size="13.5" font-weight="700" fill="#111111" text-anchor="middle">http_requests_total</text>
<text x="210.0" y="125.0" font-size="11.5" fill="#555555" text-anchor="middle">{ method, route, status }</text>
<rect x="540" y="82" width="300" height="56" rx="9" fill="#ffffff" stroke="#111111" stroke-width="2"/>
<text x="690.0" y="108.0" font-size="13.5" font-weight="700" fill="#111111" text-anchor="middle">~3,000 time series</text>
<text x="690.0" y="125.0" font-size="11.5" fill="#555555" text-anchor="middle">cheap storage, fast queries</text>
<rect x="45" y="196" width="330" height="56" rx="9" fill="#fff8ef" stroke="#e8870c" stroke-width="2"/>
<text x="210.0" y="222.0" font-size="13.5" font-weight="700" fill="#111111" text-anchor="middle">http_requests_total</text>
<text x="210.0" y="239.0" font-size="11.5" fill="#555555" text-anchor="middle">{ method, route, status, user_id }</text>
<rect x="540" y="196" width="300" height="56" rx="9" fill="#111111" stroke="#111111" stroke-width="2"/>
<text x="690.0" y="222.0" font-size="13.5" font-weight="700" fill="#ffffff" text-anchor="middle">millions of time series</text>
<text x="690.0" y="239.0" font-size="11.5" fill="#dddddd" text-anchor="middle">storage cost + slow dashboards</text>
<path d="M375,110 L540,110" fill="none" stroke="#555" stroke-width="2" marker-end="url(#a)"/>
<text x="463.5" y="104.0" font-size="11" fill="#ffffff" stroke="#ffffff" stroke-width="3" paint-order="stroke" text-anchor="middle">enumerable</text>
<text x="463.5" y="104.0" font-size="11" fill="#555" text-anchor="middle">enumerable</text>
<path d="M375,224 L540,224" fill="none" stroke="#b8650a" stroke-width="2" marker-end="url(#am)"/>
<text x="463.5" y="218.0" font-size="11" fill="#ffffff" stroke="#ffffff" stroke-width="3" paint-order="stroke" text-anchor="middle">unbounded</text>
<text x="463.5" y="218.0" font-size="11" fill="#b8650a" text-anchor="middle">unbounded</text>
<text x="440" y="34" font-size="11" fill="#888" text-anchor="middle" font-weight="700">One label decides whether a metric is cheap or ruinous</text>
<text x="440" y="300" font-size="13" fill="#6b6b6b" text-anchor="middle">The line of code looks identical at review time; the cardinality does not.</text>
</svg>