<svg xmlns="http://www.w3.org/2000/svg" viewBox="0 0 1000 500" font-family="'Red Hat Text', system-ui, sans-serif" role="img">
<defs><marker id="a" viewBox="0 0 10 10" refX="8.5" refY="5" markerWidth="9" markerHeight="9" orient="auto-start-reverse"><path d="M0,0 L10,5 L0,10 z" fill="#555"/></marker><marker id="am" viewBox="0 0 10 10" refX="8.5" refY="5" markerWidth="9" markerHeight="9" orient="auto-start-reverse"><path d="M0,0 L10,5 L0,10 z" fill="#b8650a"/></marker></defs>
<rect x="20" y="70" width="300" height="380" rx="12" fill="#fafafa" stroke="#ddd"/>
<text x="32" y="90" font-size="12" font-weight="700" fill="#888">Single-stage image</text>
<rect x="360" y="70" width="300" height="200" rx="12" fill="#fafafa" stroke="#ddd"/>
<text x="372" y="90" font-size="12" font-weight="700" fill="#888">Build stage (discarded)</text>
<rect x="700" y="70" width="280" height="200" rx="12" fill="#fafafa" stroke="#ddd"/>
<text x="712" y="90" font-size="12" font-weight="700" fill="#888">Runtime image</text>
<rect x="40" y="110" width="260" height="64" rx="9" fill="#ffffff" stroke="#111111" stroke-width="2"/>
<text x="170.0" y="140.0" font-size="13.5" font-weight="700" fill="#111111" text-anchor="middle">Compiler + Conan cache</text>
<text x="170.0" y="157.0" font-size="11.5" fill="#555555" text-anchor="middle">~600 MB</text>
<rect x="40" y="186" width="260" height="52" rx="9" fill="#ffffff" stroke="#111111" stroke-width="2"/>
<text x="170.0" y="210.0" font-size="13.5" font-weight="700" fill="#111111" text-anchor="middle">.o / .a / source tree</text>
<text x="170.0" y="227.0" font-size="11.5" fill="#555555" text-anchor="middle">~85 MB</text>
<rect x="40" y="250" width="260" height="52" rx="9" fill="#fff8ef" stroke="#e8870c" stroke-width="2"/>
<text x="170.0" y="274.0" font-size="13.5" font-weight="700" fill="#111111" text-anchor="middle">myservice binary</text>
<text x="170.0" y="291.0" font-size="11.5" fill="#555555" text-anchor="middle">4 MB</text>
<rect x="40" y="350" width="260" height="56" rx="9" fill="#2d3748" stroke="#2d3748" stroke-width="2"/>
<text x="170.0" y="383.5" font-size="13.5" font-weight="700" fill="#ffffff" text-anchor="middle">Entire 689 MB ships</text>
<rect x="380" y="110" width="260" height="56" rx="9" fill="#ffffff" stroke="#999999" stroke-width="1.5" stroke-dasharray="6 4"/>
<text x="510.0" y="143.5" font-size="13.5" font-weight="700" fill="#111111" text-anchor="middle">gcc · cmake · Conan</text>
<rect x="380" y="182" width="260" height="56" rx="9" fill="#fff8ef" stroke="#e8870c" stroke-width="2"/>
<text x="510.0" y="208.0" font-size="13.5" font-weight="700" fill="#111111" text-anchor="middle">myservice binary</text>
<text x="510.0" y="225.0" font-size="11.5" fill="#555555" text-anchor="middle">4 MB</text>
<rect x="720" y="110" width="240" height="56" rx="9" fill="#ffffff" stroke="#111111" stroke-width="2"/>
<text x="840.0" y="136.0" font-size="13.5" font-weight="700" fill="#111111" text-anchor="middle">ubi-micro base</text>
<text x="840.0" y="153.0" font-size="11.5" fill="#555555" text-anchor="middle">14 MB</text>
<rect x="720" y="182" width="240" height="56" rx="9" fill="#2d3748" stroke="#2d3748" stroke-width="2"/>
<text x="840.0" y="215.5" font-size="13.5" font-weight="700" fill="#ffffff" text-anchor="middle">myservice · 26.4 MB total</text>
<path d="M170,302 L170,350" fill="none" stroke="#555" stroke-width="2" marker-end="url(#a)"/>
<text x="176.0" y="320.0" font-size="11" fill="#ffffff" stroke="#ffffff" stroke-width="3" paint-order="stroke" text-anchor="middle">all of it</text>
<text x="176.0" y="320.0" font-size="11" fill="#555" text-anchor="middle">all of it</text>
<path d="M640,210 L720,210" fill="none" stroke="#b8650a" stroke-width="2" marker-end="url(#am)"/>
<text x="686.0" y="204.0" font-size="11" fill="#ffffff" stroke="#ffffff" stroke-width="3" paint-order="stroke" text-anchor="middle">COPY --from=build</text>
<text x="686.0" y="204.0" font-size="11" fill="#b8650a" text-anchor="middle">COPY --from=build</text>
<text x="500" y="40" font-size="11" fill="#888" text-anchor="middle" font-weight="700">The toolchain builds the binary — it does not need to travel with it</text>
<text x="170" y="470" font-size="11" fill="#888" text-anchor="middle">toolchain + caches + source + binary</text>
</svg>